<svg width="26" height="37" viewBox="0 0 26 37" fill="none" xmlns="http://www.w3.org/2000/svg">
<path d="M11.424 36.768C7.808 36.768 5.152 35.856 3.456 34.032C1.76 32.208 0.912 29.184 0.912 24.96C0.912 21.6 1.472 17.984 2.592 14.112C3.744 10.24 5.568 6.928 8.064 4.176C10.592 1.392 13.792 -2.86102e-06 17.664 -2.86102e-06C20.064 -2.86102e-06 22 0.527998 23.472 1.584C24.944 2.64 25.68 4.256 25.68 6.432C25.68 7.808 25.408 8.896 24.864 9.696C24.32 10.464 23.472 10.848 22.32 10.848C21.168 10.848 20.256 10.432 19.584 9.6C20.16 9.312 20.672 8.736 21.12 7.872C21.568 7.008 21.792 6.112 21.792 5.184C21.792 4.32 21.552 3.616 21.072 3.072C20.624 2.528 19.888 2.256 18.864 2.256C17.168 2.256 15.552 3.424 14.016 5.76C12.48 8.064 11.232 10.976 10.272 14.496C9.344 18.016 8.88 21.408 8.88 24.672C8.88 27.104 9.296 28.96 10.128 30.24C10.96 31.52 12.464 32.16 14.64 32.16C16.528 32.16 18.272 31.744 19.872 30.912C21.472 30.08 22.848 28.896 24 27.36L25.104 27.84C24.304 29.856 23.12 31.536 21.552 32.88C19.984 34.224 18.304 35.216 16.512 35.856C14.72 36.464 13.024 36.768 11.424 36.768Z" fill="#025F60"/>
</svg>
