<!--?xml version="1.0" standalone="no"?-->
              <svg id="sw-js-blob-svg" viewBox="0 0 100 100" xmlns="http://www.w3.org/2000/svg" version="1.1">
                    <defs> 
                        <linearGradient id="sw-gradient" x1="0" x2="1" y1="1" y2="0">
                            <stop id="stop1" stop-color="rgba(33, 153, 21, 1)" offset="0%"></stop>
                            <stop id="stop2" stop-color="rgba(33, 153, 21, 1)" offset="100%"></stop>
                        </linearGradient>
                    </defs>
                <path fill="none" d="M20.5,-31.5C26.5,-28.1,31.3,-22.3,34.6,-15.6C37.8,-9,39.7,-1.5,39,5.9C38.4,13.3,35.4,20.7,30.2,25.3C24.9,29.9,17.4,31.8,10.3,33.1C3.1,34.4,-3.7,35,-9.7,33.2C-15.8,31.4,-21.1,27.1,-23.9,21.8C-26.7,16.5,-27,10.2,-28.6,3.7C-30.2,-2.8,-33,-9.6,-32.5,-16.6C-32,-23.6,-28.2,-30.8,-22.3,-34.3C-16.3,-37.8,-8.1,-37.6,-0.4,-36.9C7.3,-36.2,14.5,-35,20.5,-31.5Z" width="100%" height="100%" transform="translate(50 50)" stroke-width="1" style="transition: all 0.3s ease 0s;" stroke="url(#sw-gradient)"></path>
              </svg>