<svg id="wave" style="transform:rotate(0deg); transition: 0.3s" viewBox="0 0 1440 490" version="1.1" xmlns="http://www.w3.org/2000/svg"><defs><linearGradient id="sw-gradient-0" x1="0" x2="0" y1="1" y2="0"><stop stop-color="rgba(3, 22, 52, 1)" offset="0%"></stop><stop stop-color="rgba(3, 22, 52, 1)" offset="100%"></stop></linearGradient></defs><path style="transform:translate(0, 0px); opacity:1" fill="url(#sw-gradient-0)" d="M0,196L120,179.7C240,163,480,131,720,114.3C960,98,1200,98,1440,155.2C1680,212,1920,327,2160,310.3C2400,294,2640,147,2880,130.7C3120,114,3360,229,3600,261.3C3840,294,4080,245,4320,204.2C4560,163,4800,131,5040,122.5C5280,114,5520,131,5760,130.7C6000,131,6240,114,6480,98C6720,82,6960,65,7200,122.5C7440,180,7680,310,7920,351.2C8160,392,8400,343,8640,302.2C8880,261,9120,229,9360,220.5C9600,212,9840,229,10080,228.7C10320,229,10560,212,10800,171.5C11040,131,11280,65,11520,40.8C11760,16,12000,33,12240,40.8C12480,49,12720,49,12960,49C13200,49,13440,49,13680,89.8C13920,131,14160,212,14400,228.7C14640,245,14880,196,15120,196C15360,196,15600,245,15840,236.8C16080,229,16320,163,16560,163.3C16800,163,17040,229,17160,261.3L17280,294L17280,490L17160,490C17040,490,16800,490,16560,490C16320,490,16080,490,15840,490C15600,490,15360,490,15120,490C14880,490,14640,490,14400,490C14160,490,13920,490,13680,490C13440,490,13200,490,12960,490C12720,490,12480,490,12240,490C12000,490,11760,490,11520,490C11280,490,11040,490,10800,490C10560,490,10320,490,10080,490C9840,490,9600,490,9360,490C9120,490,8880,490,8640,490C8400,490,8160,490,7920,490C7680,490,7440,490,7200,490C6960,490,6720,490,6480,490C6240,490,6000,490,5760,490C5520,490,5280,490,5040,490C4800,490,4560,490,4320,490C4080,490,3840,490,3600,490C3360,490,3120,490,2880,490C2640,490,2400,490,2160,490C1920,490,1680,490,1440,490C1200,490,960,490,720,490C480,490,240,490,120,490L0,490Z"></path></svg>