<svg id="wave" style="transform:rotate(0deg); transition: 0.3s" viewBox="0 0 1440 100" version="1.1" xmlns="http://www.w3.org/2000/svg"><defs><linearGradient id="sw-gradient-0" x1="0" x2="0" y1="1" y2="0"><stop stop-color="rgba(251, 247, 239, 1)" offset="0%"></stop><stop stop-color="rgba(251, 247, 239, 1)" offset="100%"></stop></linearGradient></defs><path style="transform:translate(0, 0px); opacity:1" fill="url(#sw-gradient-0)" d="M0,30L120,25C240,20,480,10,720,15C960,20,1200,40,1440,45C1680,50,1920,40,2160,30C2400,20,2640,10,2880,11.7C3120,13,3360,27,3600,28.3C3840,30,4080,20,4320,18.3C4560,17,4800,23,5040,21.7C5280,20,5520,10,5760,5C6000,0,6240,0,6480,10C6720,20,6960,40,7200,41.7C7440,43,7680,27,7920,26.7C8160,27,8400,43,8640,50C8880,57,9120,53,9360,46.7C9600,40,9840,30,10080,25C10320,20,10560,20,10800,31.7C11040,43,11280,67,11520,76.7C11760,87,12000,83,12240,75C12480,67,12720,53,12960,45C13200,37,13440,33,13680,41.7C13920,50,14160,70,14400,65C14640,60,14880,30,15120,30C15360,30,15600,60,15840,61.7C16080,63,16320,37,16560,23.3C16800,10,17040,10,17160,10L17280,10L17280,100L17160,100C17040,100,16800,100,16560,100C16320,100,16080,100,15840,100C15600,100,15360,100,15120,100C14880,100,14640,100,14400,100C14160,100,13920,100,13680,100C13440,100,13200,100,12960,100C12720,100,12480,100,12240,100C12000,100,11760,100,11520,100C11280,100,11040,100,10800,100C10560,100,10320,100,10080,100C9840,100,9600,100,9360,100C9120,100,8880,100,8640,100C8400,100,8160,100,7920,100C7680,100,7440,100,7200,100C6960,100,6720,100,6480,100C6240,100,6000,100,5760,100C5520,100,5280,100,5040,100C4800,100,4560,100,4320,100C4080,100,3840,100,3600,100C3360,100,3120,100,2880,100C2640,100,2400,100,2160,100C1920,100,1680,100,1440,100C1200,100,960,100,720,100C480,100,240,100,120,100L0,100Z"></path></svg>