<svg id="wave" style="transform:rotate(0deg); transition: 0.3s" viewBox="0 0 1440 280" version="1.1" xmlns="http://www.w3.org/2000/svg"><defs><linearGradient id="sw-gradient-0" x1="0" x2="0" y1="1" y2="0"><stop stop-color="rgba(3, 54, 73, 1)" offset="0%"></stop><stop stop-color="rgba(3, 54, 73, 1)" offset="100%"></stop></linearGradient></defs><path style="transform:translate(0, 0px); opacity:1" fill="url(#sw-gradient-0)" d="M0,112L80,130.7C160,149,320,187,480,191.3C640,196,800,168,960,140C1120,112,1280,84,1440,98C1600,112,1760,168,1920,200.7C2080,233,2240,243,2400,233.3C2560,224,2720,196,2880,186.7C3040,177,3200,187,3360,191.3C3520,196,3680,196,3840,177.3C4000,159,4160,121,4320,88.7C4480,56,4640,28,4800,28C4960,28,5120,56,5280,79.3C5440,103,5600,121,5760,149.3C5920,177,6080,215,6240,214.7C6400,215,6560,177,6720,149.3C6880,121,7040,103,7200,121.3C7360,140,7520,196,7680,191.3C7840,187,8000,121,8160,79.3C8320,37,8480,19,8640,28C8800,37,8960,75,9120,98C9280,121,9440,131,9600,121.3C9760,112,9920,84,10080,74.7C10240,65,10400,75,10560,65.3C10720,56,10880,28,11040,28C11200,28,11360,56,11440,70L11520,84L11520,280L11440,280C11360,280,11200,280,11040,280C10880,280,10720,280,10560,280C10400,280,10240,280,10080,280C9920,280,9760,280,9600,280C9440,280,9280,280,9120,280C8960,280,8800,280,8640,280C8480,280,8320,280,8160,280C8000,280,7840,280,7680,280C7520,280,7360,280,7200,280C7040,280,6880,280,6720,280C6560,280,6400,280,6240,280C6080,280,5920,280,5760,280C5600,280,5440,280,5280,280C5120,280,4960,280,4800,280C4640,280,4480,280,4320,280C4160,280,4000,280,3840,280C3680,280,3520,280,3360,280C3200,280,3040,280,2880,280C2720,280,2560,280,2400,280C2240,280,2080,280,1920,280C1760,280,1600,280,1440,280C1280,280,1120,280,960,280C800,280,640,280,480,280C320,280,160,280,80,280L0,280Z"></path><defs><linearGradient id="sw-gradient-1" x1="0" x2="0" y1="1" y2="0"><stop stop-color="rgba(3, 101, 100, 1)" offset="0%"></stop><stop stop-color="rgba(3, 101, 100, 1)" offset="100%"></stop></linearGradient></defs><path style="transform:translate(0, 50px); opacity:0.9" fill="url(#sw-gradient-1)" d="M0,84L80,98C160,112,320,140,480,154C640,168,800,168,960,149.3C1120,131,1280,93,1440,88.7C1600,84,1760,112,1920,126C2080,140,2240,140,2400,144.7C2560,149,2720,159,2880,163.3C3040,168,3200,168,3360,149.3C3520,131,3680,93,3840,65.3C4000,37,4160,19,4320,32.7C4480,47,4640,93,4800,107.3C4960,121,5120,103,5280,116.7C5440,131,5600,177,5760,186.7C5920,196,6080,168,6240,130.7C6400,93,6560,47,6720,23.3C6880,0,7040,0,7200,18.7C7360,37,7520,75,7680,93.3C7840,112,8000,112,8160,135.3C8320,159,8480,205,8640,186.7C8800,168,8960,84,9120,65.3C9280,47,9440,93,9600,116.7C9760,140,9920,140,10080,121.3C10240,103,10400,65,10560,42C10720,19,10880,9,11040,4.7C11200,0,11360,0,11440,0L11520,0L11520,280L11440,280C11360,280,11200,280,11040,280C10880,280,10720,280,10560,280C10400,280,10240,280,10080,280C9920,280,9760,280,9600,280C9440,280,9280,280,9120,280C8960,280,8800,280,8640,280C8480,280,8320,280,8160,280C8000,280,7840,280,7680,280C7520,280,7360,280,7200,280C7040,280,6880,280,6720,280C6560,280,6400,280,6240,280C6080,280,5920,280,5760,280C5600,280,5440,280,5280,280C5120,280,4960,280,4800,280C4640,280,4480,280,4320,280C4160,280,4000,280,3840,280C3680,280,3520,280,3360,280C3200,280,3040,280,2880,280C2720,280,2560,280,2400,280C2240,280,2080,280,1920,280C1760,280,1600,280,1440,280C1280,280,1120,280,960,280C800,280,640,280,480,280C320,280,160,280,80,280L0,280Z"></path></svg>