<svg height="100%" width="100%" id="bg-svg" viewBox="0 0 1440 700" xmlns="http://www.w3.org/2000/svg" class="transition duration-300 ease-in-out delay-150"><defs><linearGradient id="gradient"><stop offset="5%" stop-color="#0081a766"></stop><stop offset="95%" stop-color="#cbf3f066"></stop></linearGradient></defs><path d="M 0,700 C 0,700 0,175 0,175 C 63.940559871747425,183.1478357380688 127.88111974349485,191.2956714761376 176,178 C 224.11888025650515,164.7043285238624 256.416080897768,129.96514983351832 299,146 C 341.583919102232,162.03485016648168 394.4545566654334,228.84372918978912 460,221 C 525.5454433345666,213.15627081021088 603.7656924404982,130.6599334073252 652,130 C 700.2343075595018,129.3400665926748 718.4826735725738,210.5165371809101 774,227 C 829.5173264274262,243.4834628190899 922.3036132692071,195.2739178690344 988,168 C 1053.696386730793,140.7260821309656 1092.3028733505982,134.38779134295226 1136,126 C 1179.6971266494018,117.61220865704773 1228.4848933284004,107.17491675915647 1280,115 C 1331.5151066715996,122.82508324084353 1385.7575533358,148.91254162042176 1440,175 C 1440,175 1440,700 1440,700 Z" stroke="none" stroke-width="0" fill="url(#gradient)" class="transition-all duration-300 ease-in-out delay-150"></path><defs><linearGradient id="gradient"><stop offset="5%" stop-color="#0081a788"></stop><stop offset="95%" stop-color="#cbf3f088"></stop></linearGradient></defs><path d="M 0,700 C 0,700 0,350 0,350 C 41.442446664200276,306.49796522382536 82.88489332840055,262.9959304476507 140,285 C 197.11510667159945,307.0040695523493 269.90287335059804,394.51424343322236 330,407 C 390.09712664940196,419.48575656677764 437.5036132692071,356.94709581945983 479,325 C 520.4963867307929,293.05290418054017 556.0826735725736,291.69737328893825 619,285 C 681.9173264274264,278.30262671106175 772.1656924404982,266.2634110247873 827,284 C 881.8343075595018,301.7365889752127 901.2545566654335,349.2489826119127 952,368 C 1002.7454433345665,386.7510173880873 1084.816080897768,376.740658527562 1137,374 C 1189.183919102232,371.259341472438 1211.481119743495,375.78838327783944 1257,373 C 1302.518880256505,370.21161672216056 1371.2594401282527,360.1058083610803 1440,350 C 1440,350 1440,700 1440,700 Z" stroke="none" stroke-width="0" fill="url(#gradient)" class="transition-all duration-300 ease-in-out delay-150"></path><defs><linearGradient id="gradient"><stop offset="5%" stop-color="#0081a7ff"></stop><stop offset="95%" stop-color="#cbf3f0ff"></stop></linearGradient></defs><path d="M 0,700 C 0,700 0,525 0,525 C 64.6713528178567,521.249500554939 129.3427056357134,517.4990011098779 176,505 C 222.6572943642866,492.5009988901221 251.3005302750031,471.25349611542737 302,460 C 352.6994697249969,448.74650388457263 425.4551732642742,447.48701442841286 483,475 C 540.5448267357258,502.51298557158714 582.8787766679,558.7984461709212 630,574 C 677.1212233321,589.2015538290788 729.0297200641263,563.3192008879023 777,548 C 824.9702799358737,532.6807991120977 869.002343075595,527.9247502774695 936,528 C 1002.997656924405,528.0752497225305 1092.960907633494,532.9817980022198 1147,528 C 1201.039092366506,523.0182019977802 1219.1540263904303,508.1480577136515 1262,506 C 1304.8459736095697,503.8519422863485 1372.4229868047848,514.4259711431743 1440,525 C 1440,525 1440,700 1440,700 Z" stroke="none" stroke-width="0" fill="url(#gradient)" class="transition-all duration-300 ease-in-out delay-150"></path></svg>