<?xml version="1.0" standalone="no"?>
<svg xmlns:xlink="http://www.w3.org/1999/xlink" id="wave" style="transform:rotate(0deg); transition: 0.3s" viewBox="0 0 1440 270" version="1.1" xmlns="http://www.w3.org/2000/svg"><defs><linearGradient id="sw-gradient-0" x1="0" x2="0" y1="1" y2="0"><stop stop-color="rgba(255, 191, 105, 1)" offset="0%"/><stop stop-color="rgba(255, 191, 105, 1)" offset="100%"/></linearGradient></defs><path style="transform:translate(0, 0px); opacity:1" fill="url(#sw-gradient-0)" d="M0,27L60,63C120,99,240,171,360,202.5C480,234,600,225,720,184.5C840,144,960,72,1080,72C1200,72,1320,144,1440,180C1560,216,1680,216,1800,202.5C1920,189,2040,162,2160,144C2280,126,2400,117,2520,112.5C2640,108,2760,108,2880,99C3000,90,3120,72,3240,72C3360,72,3480,90,3600,121.5C3720,153,3840,198,3960,207C4080,216,4200,189,4320,180C4440,171,4560,180,4680,157.5C4800,135,4920,81,5040,90C5160,99,5280,171,5400,180C5520,189,5640,135,5760,108C5880,81,6000,81,6120,103.5C6240,126,6360,171,6480,184.5C6600,198,6720,180,6840,148.5C6960,117,7080,72,7200,85.5C7320,99,7440,171,7560,198C7680,225,7800,207,7920,180C8040,153,8160,117,8280,121.5C8400,126,8520,171,8580,193.5L8640,216L8640,270L8580,270C8520,270,8400,270,8280,270C8160,270,8040,270,7920,270C7800,270,7680,270,7560,270C7440,270,7320,270,7200,270C7080,270,6960,270,6840,270C6720,270,6600,270,6480,270C6360,270,6240,270,6120,270C6000,270,5880,270,5760,270C5640,270,5520,270,5400,270C5280,270,5160,270,5040,270C4920,270,4800,270,4680,270C4560,270,4440,270,4320,270C4200,270,4080,270,3960,270C3840,270,3720,270,3600,270C3480,270,3360,270,3240,270C3120,270,3000,270,2880,270C2760,270,2640,270,2520,270C2400,270,2280,270,2160,270C2040,270,1920,270,1800,270C1680,270,1560,270,1440,270C1320,270,1200,270,1080,270C960,270,840,270,720,270C600,270,480,270,360,270C240,270,120,270,60,270L0,270Z"/><defs><linearGradient id="sw-gradient-1" x1="0" x2="0" y1="1" y2="0"><stop stop-color="rgba(255, 159, 28, 1)" offset="0%"/><stop stop-color="rgba(255, 159, 28, 1)" offset="100%"/></linearGradient></defs><path style="transform:translate(0, 50px); opacity:0.9" fill="url(#sw-gradient-1)" d="M0,108L60,112.5C120,117,240,126,360,148.5C480,171,600,207,720,189C840,171,960,99,1080,90C1200,81,1320,135,1440,144C1560,153,1680,117,1800,94.5C1920,72,2040,63,2160,81C2280,99,2400,144,2520,157.5C2640,171,2760,153,2880,135C3000,117,3120,99,3240,103.5C3360,108,3480,135,3600,144C3720,153,3840,144,3960,121.5C4080,99,4200,63,4320,76.5C4440,90,4560,153,4680,157.5C4800,162,4920,108,5040,72C5160,36,5280,18,5400,27C5520,36,5640,72,5760,108C5880,144,6000,180,6120,198C6240,216,6360,216,6480,198C6600,180,6720,144,6840,148.5C6960,153,7080,198,7200,202.5C7320,207,7440,171,7560,157.5C7680,144,7800,153,7920,153C8040,153,8160,144,8280,130.5C8400,117,8520,99,8580,90L8640,81L8640,270L8580,270C8520,270,8400,270,8280,270C8160,270,8040,270,7920,270C7800,270,7680,270,7560,270C7440,270,7320,270,7200,270C7080,270,6960,270,6840,270C6720,270,6600,270,6480,270C6360,270,6240,270,6120,270C6000,270,5880,270,5760,270C5640,270,5520,270,5400,270C5280,270,5160,270,5040,270C4920,270,4800,270,4680,270C4560,270,4440,270,4320,270C4200,270,4080,270,3960,270C3840,270,3720,270,3600,270C3480,270,3360,270,3240,270C3120,270,3000,270,2880,270C2760,270,2640,270,2520,270C2400,270,2280,270,2160,270C2040,270,1920,270,1800,270C1680,270,1560,270,1440,270C1320,270,1200,270,1080,270C960,270,840,270,720,270C600,270,480,270,360,270C240,270,120,270,60,270L0,270Z"/></svg>