<svg id="wave" style="transform:rotate(0deg); transition: 0.3s" viewBox="0 0 1440 310" version="1.1" xmlns="http://www.w3.org/2000/svg"><defs><linearGradient id="sw-gradient-0" x1="0" x2="0" y1="1" y2="0"><stop stop-color="rgba(0, 129, 167, 1)" offset="0%"></stop><stop stop-color="rgba(0, 129, 167, 1)" offset="100%"></stop></linearGradient></defs><path style="transform:translate(0, 0px); opacity:1" fill="url(#sw-gradient-0)" d="M0,217L120,191.2C240,165,480,114,720,93C960,72,1200,83,1440,98.2C1680,114,1920,134,2160,134.3C2400,134,2640,114,2880,118.8C3120,124,3360,155,3600,186C3840,217,4080,248,4320,232.5C4560,217,4800,155,5040,129.2C5280,103,5520,114,5760,144.7C6000,176,6240,227,6480,253.2C6720,279,6960,279,7200,263.5C7440,248,7680,217,7920,175.7C8160,134,8400,83,8640,87.8C8880,93,9120,155,9360,155C9600,155,9840,93,10080,98.2C10320,103,10560,176,10800,180.8C11040,186,11280,124,11520,118.8C11760,114,12000,165,12240,165.3C12480,165,12720,114,12960,87.8C13200,62,13440,62,13680,82.7C13920,103,14160,145,14400,180.8C14640,217,14880,248,15120,253.2C15360,258,15600,238,15840,206.7C16080,176,16320,134,16560,144.7C16800,155,17040,217,17160,248L17280,279L17280,310L17160,310C17040,310,16800,310,16560,310C16320,310,16080,310,15840,310C15600,310,15360,310,15120,310C14880,310,14640,310,14400,310C14160,310,13920,310,13680,310C13440,310,13200,310,12960,310C12720,310,12480,310,12240,310C12000,310,11760,310,11520,310C11280,310,11040,310,10800,310C10560,310,10320,310,10080,310C9840,310,9600,310,9360,310C9120,310,8880,310,8640,310C8400,310,8160,310,7920,310C7680,310,7440,310,7200,310C6960,310,6720,310,6480,310C6240,310,6000,310,5760,310C5520,310,5280,310,5040,310C4800,310,4560,310,4320,310C4080,310,3840,310,3600,310C3360,310,3120,310,2880,310C2640,310,2400,310,2160,310C1920,310,1680,310,1440,310C1200,310,960,310,720,310C480,310,240,310,120,310L0,310Z"></path></svg>