<svg id="wave" style="transform:rotate(0deg); transition: 0.3s" viewBox="0 0 1440 230" version="1.1" xmlns="http://www.w3.org/2000/svg"><defs><linearGradient id="sw-gradient-0" x1="0" x2="0" y1="1" y2="0"><stop stop-color="rgba(3, 22, 52, 1)" offset="0%"></stop><stop stop-color="rgba(3, 22, 52, 1)" offset="100%"></stop></linearGradient></defs><path style="transform:translate(0, 0px); opacity:1" fill="url(#sw-gradient-0)" d="M0,184L120,164.8C240,146,480,107,720,107.3C960,107,1200,146,1440,149.5C1680,153,1920,123,2160,95.8C2400,69,2640,46,2880,61.3C3120,77,3360,130,3600,141.8C3840,153,4080,123,4320,92C4560,61,4800,31,5040,49.8C5280,69,5520,138,5760,145.7C6000,153,6240,100,6480,69C6720,38,6960,31,7200,30.7C7440,31,7680,38,7920,69C8160,100,8400,153,8640,153.3C8880,153,9120,100,9360,65.2C9600,31,9840,15,10080,30.7C10320,46,10560,92,10800,118.8C11040,146,11280,153,11520,161C11760,169,12000,176,12240,168.7C12480,161,12720,138,12960,115C13200,92,13440,69,13680,61.3C13920,54,14160,61,14400,53.7C14640,46,14880,23,15120,42.2C15360,61,15600,123,15840,157.2C16080,192,16320,199,16560,172.5C16800,146,17040,84,17160,53.7L17280,23L17280,230L17160,230C17040,230,16800,230,16560,230C16320,230,16080,230,15840,230C15600,230,15360,230,15120,230C14880,230,14640,230,14400,230C14160,230,13920,230,13680,230C13440,230,13200,230,12960,230C12720,230,12480,230,12240,230C12000,230,11760,230,11520,230C11280,230,11040,230,10800,230C10560,230,10320,230,10080,230C9840,230,9600,230,9360,230C9120,230,8880,230,8640,230C8400,230,8160,230,7920,230C7680,230,7440,230,7200,230C6960,230,6720,230,6480,230C6240,230,6000,230,5760,230C5520,230,5280,230,5040,230C4800,230,4560,230,4320,230C4080,230,3840,230,3600,230C3360,230,3120,230,2880,230C2640,230,2400,230,2160,230C1920,230,1680,230,1440,230C1200,230,960,230,720,230C480,230,240,230,120,230L0,230Z"></path></svg>