<svg id="wave" style="transform:rotate(0deg); transition: 0.3s" viewBox="0 0 1440 180" version="1.1" xmlns="http://www.w3.org/2000/svg"><defs><linearGradient id="sw-gradient-0" x1="0" x2="0" y1="1" y2="0"><stop stop-color="rgba(249, 243, 233, 1)" offset="0%"></stop><stop stop-color="rgba(249, 243, 233, 1)" offset="100%"></stop></linearGradient></defs><path style="transform:translate(0, 0px); opacity:1" fill="url(#sw-gradient-0)" d="M0,144L120,132C240,120,480,96,720,99C960,102,1200,132,1440,147C1680,162,1920,162,2160,150C2400,138,2640,114,2880,108C3120,102,3360,114,3600,123C3840,132,4080,138,4320,144C4560,150,4800,156,5040,144C5280,132,5520,102,5760,84C6000,66,6240,60,6480,63C6720,66,6960,78,7200,96C7440,114,7680,138,7920,147C8160,156,8400,150,8640,129C8880,108,9120,72,9360,48C9600,24,9840,12,10080,6C10320,0,10560,0,10800,9C11040,18,11280,36,11520,39C11760,42,12000,30,12240,24C12480,18,12720,18,12960,39C13200,60,13440,102,13680,120C13920,138,14160,132,14400,108C14640,84,14880,42,15120,30C15360,18,15600,36,15840,60C16080,84,16320,114,16560,120C16800,126,17040,108,17160,99L17280,90L17280,180L17160,180C17040,180,16800,180,16560,180C16320,180,16080,180,15840,180C15600,180,15360,180,15120,180C14880,180,14640,180,14400,180C14160,180,13920,180,13680,180C13440,180,13200,180,12960,180C12720,180,12480,180,12240,180C12000,180,11760,180,11520,180C11280,180,11040,180,10800,180C10560,180,10320,180,10080,180C9840,180,9600,180,9360,180C9120,180,8880,180,8640,180C8400,180,8160,180,7920,180C7680,180,7440,180,7200,180C6960,180,6720,180,6480,180C6240,180,6000,180,5760,180C5520,180,5280,180,5040,180C4800,180,4560,180,4320,180C4080,180,3840,180,3600,180C3360,180,3120,180,2880,180C2640,180,2400,180,2160,180C1920,180,1680,180,1440,180C1200,180,960,180,720,180C480,180,240,180,120,180L0,180Z"></path></svg>