<svg id="wave" style="transform:rotate(0deg); transition: 0.3s" viewBox="0 0 1440 180" version="1.1" xmlns="http://www.w3.org/2000/svg"><defs><linearGradient id="sw-gradient-0" x1="0" x2="0" y1="1" y2="0"><stop stop-color="rgba(3, 22, 52, 1)" offset="0%"></stop><stop stop-color="rgba(3, 22, 52, 1)" offset="100%"></stop></linearGradient></defs><path style="transform:translate(0, 0px); opacity:1" fill="url(#sw-gradient-0)" d="M0,126L80,111C160,96,320,66,480,45C640,24,800,12,960,9C1120,6,1280,12,1440,24C1600,36,1760,54,1920,54C2080,54,2240,36,2400,33C2560,30,2720,42,2880,60C3040,78,3200,102,3360,96C3520,90,3680,54,3840,57C4000,60,4160,102,4320,117C4480,132,4640,120,4800,114C4960,108,5120,108,5280,90C5440,72,5600,36,5760,39C5920,42,6080,84,6240,84C6400,84,6560,42,6720,30C6880,18,7040,36,7200,42C7360,48,7520,42,7680,57C7840,72,8000,108,8160,105C8320,102,8480,60,8640,39C8800,18,8960,18,9120,36C9280,54,9440,90,9600,111C9760,132,9920,138,10080,132C10240,126,10400,108,10560,99C10720,90,10880,90,11040,96C11200,102,11360,114,11440,120L11520,126L11520,180L11440,180C11360,180,11200,180,11040,180C10880,180,10720,180,10560,180C10400,180,10240,180,10080,180C9920,180,9760,180,9600,180C9440,180,9280,180,9120,180C8960,180,8800,180,8640,180C8480,180,8320,180,8160,180C8000,180,7840,180,7680,180C7520,180,7360,180,7200,180C7040,180,6880,180,6720,180C6560,180,6400,180,6240,180C6080,180,5920,180,5760,180C5600,180,5440,180,5280,180C5120,180,4960,180,4800,180C4640,180,4480,180,4320,180C4160,180,4000,180,3840,180C3680,180,3520,180,3360,180C3200,180,3040,180,2880,180C2720,180,2560,180,2400,180C2240,180,2080,180,1920,180C1760,180,1600,180,1440,180C1280,180,1120,180,960,180C800,180,640,180,480,180C320,180,160,180,80,180L0,180Z"></path></svg>