<svg width="1440" height="200" viewBox="0 0 1440 200" fill="none" xmlns="http://www.w3.org/2000/svg">
<g clip-path="url(#clip0)">
<path d="M-21 -4L59 16C139 36 299 76 459 96C619 116 779 116 939 102.7C1099 89 1259 63 1419 59.3C1579 56 1739 76 1899 92.7C2059 109 2219 123 2379 106C2539 89 2699 43 2859 29.3C3019 16 3179 36 3339 56C3499 76 3659 96 3819 92.7C3979 89 4139 63 4299 72.7C4459 83 4619 129 4779 142.7C4939 156 5099 136 5259 129.3C5419 123 5579 129 5739 126C5899 123 6059 109 6219 96C6379 83 6539 69 6699 69.3C6859 69 7019 83 7179 89.3C7339 96 7499 96 7659 86C7819 76 7979 56 8139 59.3C8299 63 8459 89 8619 92.7C8779 96 8939 76 9099 82.7C9259 89 9419 123 9579 132.7C9739 143 9899 129 10059 132.7C10219 136 10379 156 10539 156C10699 156 10859 136 11019 136C11179 136 11339 156 11419 166L11499 176V196H11419C11339 196 11179 196 11019 196C10859 196 10699 196 10539 196C10379 196 10219 196 10059 196C9899 196 9739 196 9579 196C9419 196 9259 196 9099 196C8939 196 8779 196 8619 196C8459 196 8299 196 8139 196C7979 196 7819 196 7659 196C7499 196 7339 196 7179 196C7019 196 6859 196 6699 196C6539 196 6379 196 6219 196C6059 196 5899 196 5739 196C5579 196 5419 196 5259 196C5099 196 4939 196 4779 196C4619 196 4459 196 4299 196C4139 196 3979 196 3819 196C3659 196 3499 196 3339 196C3179 196 3019 196 2859 196C2699 196 2539 196 2379 196C2219 196 2059 196 1899 196C1739 196 1579 196 1419 196C1259 196 1099 196 939 196C779 196 619 196 459 196C299 196 139 196 59 196H-21V-4Z" fill="url(#paint0_linear)"/>
<path d="M0 59L80 72.3C160 86 320 112 480 122.3C640 132 800 126 960 135.7C1120 146 1280 172 1440 189C1600 206 1760 212 1920 192.3C2080 172 2240 126 2400 102.3C2560 79 2720 79 2880 92.3C3040 106 3200 132 3360 145.7C3520 159 3680 159 3840 142.3C4000 126 4160 92 4320 92.3C4480 92 4640 126 4800 155.7C4960 186 5120 212 5280 225.7C5440 239 5600 239 5760 235.7C5920 232 6080 226 6240 209C6400 192 6560 166 6720 152.3C6880 139 7040 139 7200 129C7360 119 7520 99 7680 102.3C7840 106 8000 132 8160 142.3C8320 152 8480 146 8640 142.3C8800 139 8960 139 9120 155.7C9280 172 9440 206 9600 222.3C9760 239 9920 239 10080 229C10240 219 10400 199 10560 172.3C10720 146 10880 112 11040 122.3C11200 132 11360 186 11440 212.3L11520 239V259H11440C11360 259 11200 259 11040 259C10880 259 10720 259 10560 259C10400 259 10240 259 10080 259C9920 259 9760 259 9600 259C9440 259 9280 259 9120 259C8960 259 8800 259 8640 259C8480 259 8320 259 8160 259C8000 259 7840 259 7680 259C7520 259 7360 259 7200 259C7040 259 6880 259 6720 259C6560 259 6400 259 6240 259C6080 259 5920 259 5760 259C5600 259 5440 259 5280 259C5120 259 4960 259 4800 259C4640 259 4480 259 4320 259C4160 259 4000 259 3840 259C3680 259 3520 259 3360 259C3200 259 3040 259 2880 259C2720 259 2560 259 2400 259C2240 259 2080 259 1920 259C1760 259 1600 259 1440 259C1280 259 1120 259 960 259C800 259 640 259 480 259C320 259 160 259 80 259H0V59Z" fill="url(#paint1_linear)"/>
</g>
<defs>
<linearGradient id="paint0_linear" x1="-21" y1="196" x2="-21" y2="-4" gradientUnits="userSpaceOnUse">
<stop stop-color="#033649"/>
<stop offset="1" stop-color="#033649"/>
</linearGradient>
<linearGradient id="paint1_linear" x1="0" y1="259" x2="0" y2="59" gradientUnits="userSpaceOnUse">
<stop stop-color="#FBF7EF"/>
<stop offset="1" stop-color="#FBF7EF"/>
</linearGradient>
<clipPath id="clip0">
<rect width="1440" height="200" fill="white"/>
</clipPath>
</defs>
</svg>
