<svg id="wave" style="transform:rotate(180deg); transition: 0.3s" viewBox="0 0 1440 330" version="1.1" xmlns="http://www.w3.org/2000/svg"><defs><linearGradient id="sw-gradient-0" x1="0" x2="0" y1="1" y2="0"><stop stop-color="rgba(2, 95, 96, 1)" offset="0%"></stop><stop stop-color="rgba(2, 95, 96, 1)" offset="100%"></stop></linearGradient></defs><path style="transform:translate(0, 0px); opacity:1" fill="url(#sw-gradient-0)" d="M0,198L80,214.5C160,231,320,264,480,280.5C640,297,800,297,960,269.5C1120,242,1280,187,1440,148.5C1600,110,1760,88,1920,93.5C2080,99,2240,132,2400,159.5C2560,187,2720,209,2880,231C3040,253,3200,275,3360,269.5C3520,264,3680,231,3840,203.5C4000,176,4160,154,4320,137.5C4480,121,4640,110,4800,110C4960,110,5120,121,5280,126.5C5440,132,5600,132,5760,126.5C5920,121,6080,110,6240,110C6400,110,6560,121,6720,154C6880,187,7040,242,7200,231C7360,220,7520,143,7680,115.5C7840,88,8000,110,8160,148.5C8320,187,8480,242,8640,225.5C8800,209,8960,121,9120,104.5C9280,88,9440,143,9600,159.5C9760,176,9920,154,10080,170.5C10240,187,10400,242,10560,247.5C10720,253,10880,209,11040,203.5C11200,198,11360,231,11440,247.5L11520,264L11520,330L11440,330C11360,330,11200,330,11040,330C10880,330,10720,330,10560,330C10400,330,10240,330,10080,330C9920,330,9760,330,9600,330C9440,330,9280,330,9120,330C8960,330,8800,330,8640,330C8480,330,8320,330,8160,330C8000,330,7840,330,7680,330C7520,330,7360,330,7200,330C7040,330,6880,330,6720,330C6560,330,6400,330,6240,330C6080,330,5920,330,5760,330C5600,330,5440,330,5280,330C5120,330,4960,330,4800,330C4640,330,4480,330,4320,330C4160,330,4000,330,3840,330C3680,330,3520,330,3360,330C3200,330,3040,330,2880,330C2720,330,2560,330,2400,330C2240,330,2080,330,1920,330C1760,330,1600,330,1440,330C1280,330,1120,330,960,330C800,330,640,330,480,330C320,330,160,330,80,330L0,330Z"></path></svg>