<svg id="wave" style="transform:rotate(180deg); transition: 0.3s" viewBox="0 0 1440 160" version="1.1" xmlns="http://www.w3.org/2000/svg"><defs><linearGradient id="sw-gradient-0" x1="0" x2="0" y1="1" y2="0"><stop stop-color="rgba(2, 95, 96, 1)" offset="0%"></stop><stop stop-color="rgba(2, 95, 96, 1)" offset="100%"></stop></linearGradient></defs><path style="transform:translate(0, 0px); opacity:1" fill="url(#sw-gradient-0)" d="M0,48L80,61.3C160,75,320,101,480,117.3C640,133,800,139,960,122.7C1120,107,1280,69,1440,53.3C1600,37,1760,43,1920,45.3C2080,48,2240,48,2400,58.7C2560,69,2720,91,2880,101.3C3040,112,3200,112,3360,101.3C3520,91,3680,69,3840,72C4000,75,4160,101,4320,96C4480,91,4640,53,4800,56C4960,59,5120,101,5280,120C5440,139,5600,133,5760,122.7C5920,112,6080,96,6240,74.7C6400,53,6560,27,6720,24C6880,21,7040,43,7200,53.3C7360,64,7520,64,7680,66.7C7840,69,8000,75,8160,66.7C8320,59,8480,37,8640,26.7C8800,16,8960,16,9120,34.7C9280,53,9440,91,9600,93.3C9760,96,9920,64,10080,56C10240,48,10400,64,10560,82.7C10720,101,10880,123,11040,117.3C11200,112,11360,80,11440,64L11520,48L11520,160L11440,160C11360,160,11200,160,11040,160C10880,160,10720,160,10560,160C10400,160,10240,160,10080,160C9920,160,9760,160,9600,160C9440,160,9280,160,9120,160C8960,160,8800,160,8640,160C8480,160,8320,160,8160,160C8000,160,7840,160,7680,160C7520,160,7360,160,7200,160C7040,160,6880,160,6720,160C6560,160,6400,160,6240,160C6080,160,5920,160,5760,160C5600,160,5440,160,5280,160C5120,160,4960,160,4800,160C4640,160,4480,160,4320,160C4160,160,4000,160,3840,160C3680,160,3520,160,3360,160C3200,160,3040,160,2880,160C2720,160,2560,160,2400,160C2240,160,2080,160,1920,160C1760,160,1600,160,1440,160C1280,160,1120,160,960,160C800,160,640,160,480,160C320,160,160,160,80,160L0,160Z"></path></svg>