<svg width="1440" height="183" viewBox="0 0 1440 183" fill="none" xmlns="http://www.w3.org/2000/svg">
<g clip-path="url(#clip0)">
<path d="M-21 11.0736L59 24.5385C139 38.0034 299 64.9331 459 78.398C619 91.8629 779 91.8629 939 82.9088C1099 73.6853 1259 56.181 1419 53.69C1579 51.4683 1739 64.9331 1899 76.1763C2059 87.1502 2219 96.5756 2379 85.1305C2539 73.6853 2699 42.7161 2859 33.4926C3019 24.5385 3179 38.0034 3339 51.4683C3499 64.9331 3659 78.398 3819 76.1763C3979 73.6853 4139 56.181 4299 62.7114C4459 69.6458 4619 100.615 4779 109.839C4939 118.793 5099 105.328 5259 100.817C5419 96.5756 5579 100.615 5739 98.5954C5899 96.5756 6059 87.1502 6219 78.398C6379 69.6459 6539 60.2204 6699 60.4224C6859 60.2204 7019 69.6459 7179 73.8873C7339 78.398 7499 78.398 7659 71.6656C7819 64.9331 7979 51.4683 8139 53.69C8299 56.181 8459 73.6853 8619 76.1763C8779 78.398 8939 64.9331 9099 69.4439C9259 73.6853 9419 96.5756 9579 103.106C9739 110.041 9899 100.615 10059 103.106C10219 105.328 10379 118.793 10539 118.793C10699 118.793 10859 105.328 11019 105.328C11179 105.328 11339 118.793 11419 125.525L11499 132.258V145.722H11419C11339 145.722 11179 145.722 11019 145.722C10859 145.722 10699 145.722 10539 145.722C10379 145.722 10219 145.722 10059 145.722C9899 145.722 9739 145.722 9579 145.722C9419 145.722 9259 145.722 9099 145.722C8939 145.722 8779 145.722 8619 145.722C8459 145.722 8299 145.722 8139 145.722C7979 145.722 7819 145.722 7659 145.722C7499 145.722 7339 145.722 7179 145.722C7019 145.722 6859 145.722 6699 145.722C6539 145.722 6379 145.722 6219 145.722C6059 145.722 5899 145.722 5739 145.722C5579 145.722 5419 145.722 5259 145.722C5099 145.722 4939 145.722 4779 145.722C4619 145.722 4459 145.722 4299 145.722C4139 145.722 3979 145.722 3819 145.722C3659 145.722 3499 145.722 3339 145.722C3179 145.722 3019 145.722 2859 145.722C2699 145.722 2539 145.722 2379 145.722C2219 145.722 2059 145.722 1899 145.722C1739 145.722 1579 145.722 1419 145.722C1259 145.722 1099 145.722 939 145.722C779 145.722 619 145.722 459 145.722C299 145.722 139 145.722 59 145.722H-21V11.0736Z" fill="url(#paint0_linear)"/>
<path d="M0 54.9961L80 63.9573C160 73.1881 320 90.7063 480 97.6462C640 104.182 800 100.139 960 106.675C1120 113.615 1280 131.133 1440 142.587C1600 154.041 1760 158.084 1920 144.811C2080 131.133 2240 100.139 2400 84.1706C2560 68.4716 2720 68.4716 2880 77.4329C3040 86.6636 3200 104.182 3360 113.413C3520 122.374 3680 122.374 3840 111.122C4000 100.139 4160 77.2307 4320 77.4329C4480 77.2307 4640 100.139 4800 120.15C4960 140.566 5120 158.084 5280 167.315C5440 176.276 5600 176.276 5760 174.052C5920 171.559 6080 167.517 6240 156.063C6400 144.608 6560 127.09 6720 117.859C6880 108.898 7040 108.898 7200 102.16C7360 95.4227 7520 81.9472 7680 84.1706C7840 86.6636 8000 104.182 8160 111.122C8320 117.657 8480 113.615 8640 111.122C8800 108.898 8960 108.898 9120 120.15C9280 131.133 9440 154.041 9600 165.024C9760 176.276 9920 176.276 10080 169.538C10240 162.8 10400 149.325 10560 131.335C10720 113.615 10880 90.7063 11040 97.6462C11200 104.182 11360 140.566 11440 158.286L11520 176.276V189.751H11440C11360 189.751 11200 189.751 11040 189.751C10880 189.751 10720 189.751 10560 189.751C10400 189.751 10240 189.751 10080 189.751C9920 189.751 9760 189.751 9600 189.751C9440 189.751 9280 189.751 9120 189.751C8960 189.751 8800 189.751 8640 189.751C8480 189.751 8320 189.751 8160 189.751C8000 189.751 7840 189.751 7680 189.751C7520 189.751 7360 189.751 7200 189.751C7040 189.751 6880 189.751 6720 189.751C6560 189.751 6400 189.751 6240 189.751C6080 189.751 5920 189.751 5760 189.751C5600 189.751 5440 189.751 5280 189.751C5120 189.751 4960 189.751 4800 189.751C4640 189.751 4480 189.751 4320 189.751C4160 189.751 4000 189.751 3840 189.751C3680 189.751 3520 189.751 3360 189.751C3200 189.751 3040 189.751 2880 189.751C2720 189.751 2560 189.751 2400 189.751C2240 189.751 2080 189.751 1920 189.751C1760 189.751 1600 189.751 1440 189.751C1280 189.751 1120 189.751 960 189.751C800 189.751 640 189.751 480 189.751C320 189.751 160 189.751 80 189.751H0V54.9961Z" fill="url(#paint1_linear)"/>
</g>
<defs>
<linearGradient id="paint0_linear" x1="-21" y1="145.722" x2="-21" y2="11.0736" gradientUnits="userSpaceOnUse">
<stop stop-color="#033649"/>
<stop offset="1" stop-color="#033649"/>
</linearGradient>
<linearGradient id="paint1_linear" x1="0" y1="189.751" x2="0" y2="54.9961" gradientUnits="userSpaceOnUse">
<stop stop-color="#FBF7EF"/>
<stop offset="1" stop-color="#FBF7EF"/>
</linearGradient>
<clipPath id="clip0">
<rect width="1440" height="183" fill="white"/>
</clipPath>
</defs>
</svg>